# xmcd
#
# Track frame offsets:
#	150
#	15391
#	30383
#	44610
#	58718
#	73493
#	90133
#	103710
#	118567
#	133098
#	146943
#	165296
#
# Disc length: 2400 seconds
#
# Revision: 0
# Processed by: cddbd v1.5PL3 Copyright (c) Steve Scherf et al.
# Submitted via: dBpowerAMP V4.0
#
DISCID=a0095e0c
DTITLE=Jim Hendricks - Cowboy Serenade
DYEAR=2001
DGENRE=Country
TTITLE0=Ridin' Down the Canyon
TTITLE1=Tumbling Tumbleweeds
TTITLE2=That Silver-Haired Daddy of Mine
TTITLE3=Someday You'll Want Me to Want You
TTITLE4=The Yellow Rose of Texas
TTITLE5=Red River Valley
TTITLE6=Sioux City Sue
TTITLE7=Streets of Laredo (The Cowboys's Lament)
TTITLE8=Cool Water
TTITLE9=Columbus Stockade Blues
TTITLE10=The Strawberry Roan
TTITLE11=Back in the Saddle Again
EXTD=Cowboy Music
EXTT0=
EXTT1=
EXTT2=
EXTT3=
EXTT4=
EXTT5=
EXTT6=
EXTT7=
EXTT8=
EXTT9=
EXTT10=
EXTT11=
PLAYORDER=
